<svg width="120.000000" height="119.000000" viewBox="0 0 120 119" fill="none" xmlns="http://www.w3.org/2000/svg" xmlns:xlink="http://www.w3.org/1999/xlink">
	<desc>
			Created with Pixso.
	</desc>
	<defs>
		<clipPath id="clip9_15">
			<rect id="vscode-icons:file-type-css" width="120.000000" height="119.000000" fill="white" fill-opacity="0"/>
		</clipPath>
	</defs>
	<rect id="vscode-icons:file-type-css" width="120.000000" height="119.000000" fill="#FFFFFF" fill-opacity="0"/>
	<g clip-path="url(#clip9_15)">
		<path id="Vector" d="M22.1324 101.154L13.71 7.4375L106.29 7.4375L97.8562 101.139L59.9437 111.562L22.1324 101.154Z" fill="#1572B6" fill-opacity="1.000000" fill-rule="nonzero"/>
		<path id="Vector" d="M60 103.597L90.6375 95.174L97.845 15.1018L60 15.1018L60 103.597Z" fill="#33A9DC" fill-opacity="1.000000" fill-rule="nonzero"/>
		<path id="Vector" d="M60 49.054L75.3375 49.054L76.395 37.2842L60 37.2842L60 25.7896L89.0625 25.7896L88.785 28.8724L85.9388 60.5487L60 60.5487L60 49.054Z" fill="#FFFFFF" fill-opacity="1.000000" fill-rule="nonzero"/>
		<path id="Vector" d="M60.0713 78.9045L60.0188 78.9193L47.1113 75.4609L46.2863 66.2942L34.65 66.2942L36.2738 84.3413L60.015 90.8788L60.0713 90.864L60.0713 78.9045Z" fill="#EBEBEB" fill-opacity="1.000000" fill-rule="nonzero"/>
		<path id="Vector" d="M74.3513 60.0615L72.9563 75.4534L60.03 78.9119L60.03 90.8714L83.79 84.3412L83.9663 82.4001L85.98 60.0615L74.3513 60.0615Z" fill="#FFFFFF" fill-opacity="1.000000" fill-rule="nonzero"/>
		<path id="Vector" d="M60.0413 25.7896L60.0413 37.2842L32.0438 37.2842L31.8113 34.6997L31.2825 28.8724L31.005 25.7896L60.0413 25.7896ZM60 49.054L60 60.5487L47.2538 60.5487L47.0212 57.9642L46.4963 52.1369L46.2188 49.054L60 49.054Z" fill="#EBEBEB" fill-opacity="1.000000" fill-rule="nonzero"/>
	</g>
</svg>
