<svg width="30.000000" height="29.259888" viewBox="0 0 30 29.2599" fill="none" xmlns="http://www.w3.org/2000/svg" xmlns:xlink="http://www.w3.org/1999/xlink">
	<desc>
			Created with Pixso.
	</desc>
	<defs/>
	<path id="Vector" d="M15 0C6.71249 0 0 6.71252 0 15C0 21.6375 4.29375 27.2438 10.2563 29.2313C11.0063 29.3625 11.2875 28.9125 11.2875 28.5187C11.2875 28.1625 11.2687 26.9813 11.2687 25.725C7.5 26.4188 6.52499 24.8063 6.22501 23.9625C6.05624 23.5312 5.325 22.2 4.6875 21.8438C4.16251 21.5625 3.41251 20.8688 4.66875 20.85C5.85001 20.8312 6.69376 21.9375 6.97501 22.3875C8.32501 24.6562 10.4813 24.0187 11.3438 23.625C11.475 22.65 11.8687 21.9938 12.3 21.6188C8.96249 21.2438 5.47501 19.95 5.47501 14.2125C5.47501 12.5812 6.05624 11.2313 7.0125 10.1813C6.8625 9.80627 6.33749 8.26874 7.16251 6.20624C7.16251 6.20624 8.41876 5.8125 11.2875 7.74377C12.4875 7.40625 13.7625 7.23749 15.0375 7.23749C16.3125 7.23749 17.5875 7.40625 18.7875 7.74377C21.6562 5.79376 22.9125 6.20624 22.9125 6.20624C23.7375 8.26874 23.2125 9.80627 23.0625 10.1813C24.0187 11.2313 24.6 12.5625 24.6 14.2125C24.6 19.9688 21.0938 21.2438 17.7563 21.6188C18.3 22.0875 18.7687 22.9875 18.7687 24.3937C18.7687 26.4 18.75 28.0125 18.75 28.5187C18.75 28.9125 19.0312 29.3812 19.7812 29.2313C22.759 28.2259 25.3465 26.3121 27.1796 23.7592C29.0127 21.2063 29.9991 18.1429 30 15C30 6.71252 23.2875 0 15 0Z" fill="#666666" fill-opacity="1.000000" fill-rule="evenodd"/>
</svg>
