<svg width="20.000000" height="20.000000" viewBox="0 0 20 20" fill="none" xmlns="http://www.w3.org/2000/svg" xmlns:xlink="http://www.w3.org/1999/xlink">
	<desc>
			Created with Pixso.
	</desc>
	<defs>
		<clipPath id="clip10_90">
			<rect id="akar-icons:github-fill" width="20.000000" height="20.000000" fill="white" fill-opacity="0"/>
		</clipPath>
	</defs>
	<rect id="akar-icons:github-fill" width="20.000000" height="20.000000" fill="#FFFFFF" fill-opacity="0"/>
	<g clip-path="url(#clip10_90)">
		<path id="Vector" d="M10 0C4.47498 0 0 4.47498 0 10C0 14.425 2.86249 18.1625 6.83752 19.4875C7.33752 19.575 7.52502 19.275 7.52502 19.0125C7.52502 18.775 7.51251 17.9875 7.51251 17.15C5 17.6125 4.34998 16.5375 4.15002 15.975C4.03748 15.6875 3.54999 14.8 3.125 14.5625C2.77502 14.375 2.27502 13.9125 3.11249 13.9C3.90002 13.8875 4.46252 14.625 4.65002 14.925C5.54999 16.4375 6.98749 16.0125 7.5625 15.75C7.65002 15.1 7.91248 14.6625 8.20001 14.4125C5.97498 14.1625 3.65002 13.3 3.65002 9.47498C3.65002 8.38745 4.03748 7.48755 4.67499 6.78748C4.57501 6.53748 4.22498 5.51245 4.77502 4.13745C4.77502 4.13745 5.61249 3.875 7.52502 5.16248C8.32501 4.9375 9.17499 4.82495 10.025 4.82495C10.875 4.82495 11.725 4.9375 12.525 5.16248C14.4375 3.86255 15.275 4.13745 15.275 4.13745C15.825 5.51245 15.475 6.53748 15.375 6.78748C16.0125 7.48755 16.4 8.375 16.4 9.47498C16.4 13.3125 14.0625 14.1625 11.8375 14.4125C12.2 14.725 12.5125 15.325 12.5125 16.2625C12.5125 17.6 12.5 18.675 12.5 19.0125C12.5 19.275 12.6875 19.5875 13.1875 19.4875C15.1727 18.8173 16.8976 17.5414 18.1198 15.8395C19.3418 14.1376 19.9994 12.0952 20 10C20 4.47498 15.525 0 10 0Z" fill="#000000" fill-opacity="1.000000" fill-rule="evenodd"/>
	</g>
</svg>
