<svg width="120.000000" height="120.000000" viewBox="0 0 120 120" fill="none" xmlns="http://www.w3.org/2000/svg" xmlns:xlink="http://www.w3.org/1999/xlink">
	<desc>
			Created with Pixso.
	</desc>
	<defs>
		<clipPath id="clip9_10">
			<rect id="vscode-icons:file-type-html" width="120.000000" height="120.000000" fill="white" fill-opacity="0"/>
		</clipPath>
	</defs>
	<rect id="vscode-icons:file-type-html" width="120.000000" height="120.000000" fill="#FFFFFF" fill-opacity="0"/>
	<g clip-path="url(#clip9_10)">
		<path id="Vector" d="M22.1325 102.004L13.7062 7.5L106.294 7.5L97.8562 101.989L59.9437 112.5L22.1325 102.004Z" fill="#E44F26" fill-opacity="1.000000" fill-rule="nonzero"/>
		<path id="Vector" d="M60 104.468L90.6375 95.9738L97.845 15.2288L60 15.2288L60 104.468Z" fill="#F1662A" fill-opacity="1.000000" fill-rule="nonzero"/>
		<path id="Vector" d="M60 50.2763L44.6625 50.2763L43.605 38.4075L60 38.4075L60 26.8163L30.9375 26.8163L31.215 29.9288L34.0613 61.8675L60 61.8675L60 50.2763ZM60 80.3775L59.9475 80.3925L47.04 76.9088L46.215 67.665L34.5787 67.665L36.2025 85.86L59.9475 92.4525L60 92.4375L60 80.3775Z" fill="#EBEBEB" fill-opacity="1.000000" fill-rule="nonzero"/>
		<path id="Vector" d="M59.9587 50.2763L59.9587 61.8675L74.2313 61.8675L72.8887 76.9013L59.9587 80.3888L59.9587 92.4488L83.7225 85.86L83.895 83.9025L86.6175 53.3888L86.9025 50.2763L59.9587 50.2763ZM59.9587 26.8163L59.9587 38.4075L87.9562 38.4075L88.1887 35.805L88.7175 29.9288L88.995 26.8163L59.9587 26.8163Z" fill="#FFFFFF" fill-opacity="1.000000" fill-rule="nonzero"/>
	</g>
</svg>
