<svg width="30.000000" height="30.000000" viewBox="0 0 30 30" fill="none" xmlns="http://www.w3.org/2000/svg" xmlns:xlink="http://www.w3.org/1999/xlink">
	<desc>
			Created with Pixso.
	</desc>
	<defs>
		<clipPath id="clip8_50">
			<rect id="entypo-social:linkedin-with-circle" width="30.000000" height="30.000000" fill="white" fill-opacity="0"/>
		</clipPath>
	</defs>
	<rect id="entypo-social:linkedin-with-circle" width="30.000000" height="30.000000" fill="#FFFFFF" fill-opacity="0"/>
	<g clip-path="url(#clip8_50)">
		<path id="Vector" d="M15 0.599976C7.04697 0.599976 0.599976 7.047 0.599976 15C0.599976 22.953 7.04697 29.4 15 29.4C22.953 29.4 29.4 22.953 29.4 15C29.4 7.047 22.953 0.599976 15 0.599976ZM11.475 20.9685L8.55896 20.9685L8.55896 11.5845L11.475 11.5845L11.475 20.9685ZM9.99896 10.4325C9.07797 10.4325 8.48248 9.77997 8.48248 8.97296C8.48248 8.14948 9.09598 7.51648 10.0365 7.51648C10.977 7.51648 11.553 8.14948 11.571 8.97296C11.571 9.77997 10.977 10.4325 9.99896 10.4325ZM22.125 20.9685L19.209 20.9685L19.209 15.768C19.209 14.5575 18.786 13.7355 17.7315 13.7355C16.926 13.7355 16.4475 14.292 16.236 14.8275C16.158 15.018 16.1385 15.288 16.1385 15.5565L16.1385 20.967L13.221 20.967L13.221 14.577C13.221 13.4055 13.1835 12.426 13.1445 11.5829L15.678 11.5829L15.8115 12.8865L15.87 12.8865C16.254 12.2745 17.1945 11.3715 18.768 11.3715C20.6865 11.3715 22.125 12.657 22.125 15.42L22.125 20.9685Z" fill="#666666" fill-opacity="1.000000" fill-rule="nonzero"/>
	</g>
</svg>
