<svg width="16.667114" height="16.667114" viewBox="0 0 16.6671 16.6671" fill="none" xmlns="http://www.w3.org/2000/svg" xmlns:xlink="http://www.w3.org/1999/xlink">
	<desc>
			Created with Pixso.
	</desc>
	<defs/>
	<path id="Vector" d="M9.62024 7.04688C8.93762 6.36462 8.01202 5.98132 7.04688 5.98132C6.08179 5.98132 5.15613 6.36462 4.47357 7.04688L1.89941 9.62024C1.2168 10.3029 0.833313 11.2286 0.833313 12.194C0.833313 13.1593 1.2168 14.0852 1.89941 14.7677C2.58197 15.4503 3.50781 15.8339 4.47314 15.8339C5.43848 15.8339 6.36432 15.4503 7.04688 14.7677L8.33356 13.4811" stroke="#000000" stroke-opacity="1.000000" stroke-width="1.666667" stroke-linejoin="round" stroke-linecap="round"/>
	<path id="Vector" d="M7.04688 9.62024C7.72949 10.3026 8.65509 10.6859 9.62018 10.6859C10.5853 10.6859 11.5109 10.3026 12.1935 9.62024L14.7677 7.047C15.4503 6.36438 15.8338 5.4386 15.8338 4.47327C15.8338 3.50781 15.4503 2.58203 14.7677 1.89941C14.0851 1.2168 13.1593 0.833374 12.194 0.833374C11.2286 0.833374 10.3028 1.2168 9.62018 1.89941L8.33356 3.18616" stroke="#000000" stroke-opacity="1.000000" stroke-width="1.666667" stroke-linejoin="round" stroke-linecap="round"/>
</svg>
