<svg width="113.000000" height="101.000000" viewBox="0 0 113 101" fill="none" xmlns="http://www.w3.org/2000/svg" xmlns:xlink="http://www.w3.org/1999/xlink">
	<desc>
			Created with Pixso.
	</desc>
	<defs>
		<clipPath id="clip9_38">
			<rect id="logos:react" width="113.000000" height="101.000000" fill="white" fill-opacity="0"/>
		</clipPath>
	</defs>
	<rect id="logos:react" width="113.000000" height="101.000000" fill="#FFFFFF" fill-opacity="0"/>
	<g clip-path="url(#clip9_38)">
		<path id="Vector" d="M92.9055 32.7028C91.703 32.2887 90.4904 31.9051 89.2686 31.5524C89.4739 30.7107 89.6628 29.8792 89.8305 29.0623C92.5838 15.6484 90.7839 4.84184 84.636 1.28381C78.7415 -2.12715 69.1016 1.42955 59.3658 9.93349C58.4063 10.7731 57.4681 11.6369 56.5521 12.524C55.9389 11.9341 55.3148 11.3556 54.6803 10.7889C44.4767 1.69623 34.2493 -2.13602 28.108 1.43221C22.2188 4.85381 20.475 15.0127 22.9537 27.7254C23.2003 28.9845 23.4788 30.2371 23.7888 31.4819C22.3411 31.8948 20.9442 32.3342 19.6073 32.802C7.64436 36.9882 0.00469971 43.5483 0.00469971 50.353C0.00469971 57.3809 8.20623 64.4301 20.6661 68.7044C21.6762 69.0495 22.6948 69.3693 23.7208 69.6635C23.3876 71.0042 23.0918 72.3541 22.8337 73.7114C20.4706 86.2036 22.3159 96.1224 28.1892 99.5222C34.2554 103.033 44.4369 99.4248 54.3505 90.7268C55.1544 90.0197 55.9406 89.2925 56.7083 88.546C57.7003 89.5067 58.7188 90.4394 59.7626 91.343C69.3659 99.6365 78.8501 102.985 84.7177 99.5763C90.7781 96.055 92.7479 85.3995 90.1907 72.4357C89.9892 71.42 89.7633 70.4094 89.5131 69.4048C90.2282 69.1921 90.9299 68.9733 91.6141 68.7456C104.567 64.4385 112.995 57.4748 112.995 50.353C112.995 43.5235 105.109 36.9191 92.9055 32.7028ZM90.0962 64.1475C89.4783 64.3525 88.8445 64.5506 88.1983 64.7433C86.7683 60.1996 84.8386 55.3684 82.4768 50.3765C84.7305 45.5036 86.586 40.734 87.9759 36.2201C89.1318 36.5558 90.2533 36.9098 91.3347 37.2832C101.791 40.8962 108.169 46.2372 108.169 50.353C108.169 54.7367 101.281 60.4277 90.0962 64.1475ZM85.4556 73.3766C86.5864 79.1087 86.7475 84.2916 85.9985 88.3436C85.3259 91.9845 83.9726 94.4116 82.299 95.3839C78.7384 97.4526 71.1235 94.7637 62.9109 87.6707C61.9401 86.8305 60.9927 85.9634 60.0698 85.0704C63.2539 81.5757 66.4357 77.5131 69.5412 73.0009C75.0036 72.5145 80.1641 71.7189 84.8439 70.6331C85.0693 71.5427 85.2733 72.4574 85.4556 73.3766ZM38.5257 95.0264C35.0468 96.2592 32.2759 96.2947 30.6009 95.3254C27.0368 93.2625 25.5551 85.2981 27.5762 74.6151C27.8164 73.3528 28.0915 72.0973 28.4011 70.8502C33.0293 71.8779 38.1523 72.6168 43.6275 73.0625C46.7541 77.4777 50.0278 81.5358 53.327 85.0894C52.6259 85.7704 51.9081 86.4339 51.1745 87.0793C46.7903 90.9253 42.3974 93.6541 38.5257 95.0264ZM22.2277 64.1204C16.718 62.2302 12.168 59.7739 9.04925 57.0934C6.24655 54.6849 4.83195 52.2932 4.83195 50.353C4.83195 46.2235 10.9657 40.9564 21.1962 37.3767C22.4378 36.9426 23.7372 36.5328 25.0855 36.1483C26.4997 40.7642 28.3543 45.5905 30.5925 50.4708C28.3252 55.4233 26.4441 60.3267 25.0162 64.9971C24.0797 64.7278 23.1499 64.4355 22.2277 64.1204ZM27.6909 26.7947C25.5675 15.9031 26.9777 7.68712 30.5267 5.62503C34.3066 3.42873 42.6653 6.56017 51.4755 14.4116C52.05 14.9247 52.6152 15.4483 53.1708 15.982C49.8879 19.5201 46.6442 23.5481 43.5454 27.9372C38.2313 28.4315 33.1445 29.2254 28.4677 30.289C28.1796 29.1311 27.9206 27.9661 27.6909 26.7952L27.6909 26.7947ZM76.4301 38.874C75.3254 36.9589 74.1798 35.068 72.994 33.2025C76.5991 33.6601 80.0533 34.2674 83.2969 35.0098C82.3232 38.1426 81.1095 41.4176 79.6808 44.7754C78.6364 42.7867 77.5527 40.8192 76.4301 38.874ZM56.5543 19.4443C58.7806 21.8652 61.0104 24.5678 63.2035 27.5004C58.7545 27.2895 54.2981 27.2886 49.849 27.4977C52.0444 24.5922 54.2932 21.8931 56.5543 19.4443ZM36.551 38.9072C35.4424 40.8368 34.3789 42.792 33.3612 44.7714C31.9559 41.4255 30.7532 38.1355 29.7711 34.9584C32.9949 34.2346 36.4327 33.6428 40.0149 33.1936C38.8158 35.0705 37.6609 36.9754 36.551 38.9067L36.551 38.9072ZM40.1177 67.857C36.4168 67.4424 32.9274 66.8811 29.7045 66.1768C30.702 62.943 31.9312 59.5829 33.367 56.1653C34.3886 58.1462 35.4566 60.1027 36.57 62.0331C37.7149 64.0176 38.9004 65.9615 40.1177 67.857ZM56.6876 81.6027C54.3995 79.1256 52.1177 76.3848 49.8892 73.4373C52.0528 73.5223 54.2583 73.5657 56.5 73.5657C58.8031 73.5657 61.0797 73.5139 63.3205 73.4138C61.1203 76.4145 58.8989 79.1592 56.6876 81.6027ZM79.7262 55.9908C81.2366 59.4461 82.5095 62.7884 83.5202 65.9668C80.2444 66.7172 76.7073 67.3214 72.9803 67.7701C74.1746 65.87 75.331 63.9462 76.449 61.9999C77.5857 60.0215 78.6784 58.018 79.7262 55.9908ZM72.268 59.5794C70.5564 62.5635 68.7486 65.491 66.8475 68.3571C63.4037 68.6019 59.9524 68.7235 56.5 68.7217C52.9836 68.7217 49.5634 68.6118 46.27 68.3974C44.3192 65.5379 42.4769 62.6053 40.7471 59.606L40.7475 59.606C39.0258 56.6226 37.4176 53.5746 35.9265 50.4686C37.4139 47.3619 39.0172 44.3125 40.733 41.3268L40.7325 41.3272C42.4477 38.3407 44.2752 35.4207 46.2113 32.5734C49.5714 32.3183 53.0172 32.1854 56.4996 32.1854L56.5 32.1854C59.9983 32.1854 63.4485 32.3196 66.8078 32.5765C68.7242 35.4195 70.5401 38.3295 72.2521 41.3011C73.9736 44.2802 75.5981 47.3148 77.123 50.3999C75.6138 53.5166 73.9944 56.5784 72.268 59.5794ZM82.2253 5.48062C86.0087 7.67073 87.4802 16.5025 85.103 28.0842C84.9511 28.8232 84.7808 29.5758 84.5954 30.339C79.9072 29.2528 74.8169 28.4453 69.4873 27.9434C66.3827 23.506 63.1656 19.4718 59.9361 15.9793C60.7825 15.1605 61.649 14.3628 62.5349 13.5872C70.8768 6.30147 78.6731 3.42474 82.2253 5.48062ZM56.5 40.2264C62.0723 40.2264 66.5897 44.7603 66.5897 50.353C66.5897 55.9456 62.0723 60.4796 56.5 60.4796C50.9277 60.4796 46.4103 55.9456 46.4103 50.353C46.4103 44.7603 50.9277 40.2264 56.5 40.2264Z" fill="#00D8FF" fill-opacity="1.000000" fill-rule="nonzero"/>
	</g>
</svg>
