<svg width="31.875000" height="31.875000" viewBox="0 0 31.875 31.875" fill="none" xmlns="http://www.w3.org/2000/svg" xmlns:xlink="http://www.w3.org/1999/xlink">
	<desc>
			Created with Pixso.
	</desc>
	<defs/>
	<rect id="ant-design:twitter-circle-filled" width="30.000000" height="30.000000" fill="#FFFFFF" fill-opacity="0"/>
	<path id="Vector" d="M16.875 1.875C8.59152 1.875 1.875 8.59149 1.875 16.875C1.875 25.1585 8.59152 31.875 16.875 31.875C25.1585 31.875 31.875 25.1585 31.875 16.875C31.875 8.59149 25.1585 1.875 16.875 1.875ZM24.0837 13.1819C24.0938 13.3393 24.0938 13.5034 24.0938 13.6641C24.0938 18.5792 20.3504 24.2411 13.51 24.2411C11.4007 24.2411 9.44531 23.6284 7.798 22.5737C8.09933 22.6071 8.38727 22.6205 8.69531 22.6205C10.4364 22.6205 12.0368 22.0312 13.3125 21.0335C11.6786 21 10.3058 19.9286 9.83707 18.4554C10.4096 18.5391 10.9252 18.5391 11.5145 18.3884C10.6732 18.2175 9.91699 17.7606 9.37439 17.0953C8.83179 16.43 8.53622 15.5974 8.53793 14.7388L8.53793 14.692C9.03012 14.9698 9.60938 15.1406 10.2154 15.1641C9.70593 14.8245 9.28815 14.3646 8.99902 13.8249C8.70993 13.2852 8.55844 12.6826 8.55804 12.0703C8.55804 11.3773 8.73883 10.7444 9.06363 10.1953C9.99744 11.3448 11.1627 12.2851 12.4837 12.9548C13.8047 13.6245 15.2518 14.0088 16.731 14.0826C16.2054 11.5547 18.0938 9.50891 20.3638 9.50891C21.4353 9.50891 22.3996 9.95758 23.0793 10.6808C23.9196 10.5234 24.7232 10.2087 25.4397 9.7868C25.1618 10.6473 24.5792 11.3739 23.8058 11.8326C24.5558 11.7523 25.279 11.5446 25.9487 11.2534C25.4431 11.9966 24.8103 12.6562 24.0837 13.1819Z" fill="#666666" fill-opacity="1.000000" fill-rule="nonzero"/>
</svg>
