<svg width="112.000000" height="112.000000" viewBox="0 0 112 112" fill="none" xmlns="http://www.w3.org/2000/svg" xmlns:xlink="http://www.w3.org/1999/xlink">
	<desc>
			Created with Pixso.
	</desc>
	<defs>
		<clipPath id="clip9_25">
			<rect id="vscode-icons:file-type-vscode" width="112.000000" height="112.000000" fill="white" fill-opacity="0"/>
		</clipPath>
	</defs>
	<rect id="vscode-icons:file-type-vscode" width="112.000000" height="112.000000" fill="#FFFFFF" fill-opacity="0"/>
	<g clip-path="url(#clip9_25)">
		<path id="Vector" d="M101.535 17.605L81.354 7.88898C80.2143 7.33948 78.9319 7.15814 77.6845 7.37012C76.4372 7.58209 75.2867 8.17685 74.3925 9.07199L8.32998 69.3C7.52845 70.0273 7.04865 71.0432 6.99615 72.1243C6.94363 73.2053 7.32271 74.2629 8.04998 75.0645C8.13748 75.159 8.22498 75.25 8.31948 75.334L13.713 80.234C14.4177 80.8754 15.3249 81.2498 16.277 81.2919C17.229 81.3341 18.1657 81.0416 18.9245 80.465L98.497 20.125C99.098 19.6689 99.8144 19.3896 100.566 19.3186C101.317 19.2477 102.073 19.3877 102.749 19.7231C103.424 20.0585 103.993 20.5758 104.391 21.2169C104.789 21.8581 105 22.5975 105 23.352L105 23.1175C105 21.9656 104.675 20.8372 104.062 19.862C103.449 18.8868 102.573 18.1045 101.535 17.605Z" fill="#0065A9" fill-opacity="1.000000" fill-rule="nonzero"/>
		<path id="Vector" d="M101.535 94.395L81.354 104.115C80.214 104.662 78.9319 104.843 77.6849 104.631C76.4379 104.419 75.2875 103.825 74.3925 102.932L8.32998 42.7C7.52845 41.9727 7.04865 40.9568 6.99615 39.8758C6.94363 38.7947 7.32271 37.7371 8.04998 36.9355C8.13748 36.841 8.22498 36.75 8.31948 36.666L13.713 31.766C14.4185 31.1219 15.3277 30.7459 16.2821 30.7037C17.2365 30.6615 18.1754 30.9557 18.935 31.535L98.497 91.875C99.098 92.3311 99.8144 92.6104 100.566 92.6814C101.317 92.7523 102.073 92.6123 102.749 92.2769C103.424 91.9415 103.993 91.4242 104.391 90.7831C104.789 90.1419 105 89.4025 105 88.648L105 88.9C104.996 90.0488 104.669 91.1733 104.057 92.1451C103.444 93.1168 102.57 93.8965 101.535 94.395Z" fill="#007ACC" fill-opacity="1.000000" fill-rule="nonzero"/>
		<path id="Vector" d="M81.354 104.115C80.214 104.662 78.932 104.843 77.685 104.631C76.438 104.419 75.2876 103.825 74.3925 102.932C74.8952 103.428 75.533 103.764 76.2261 103.899C76.9193 104.035 77.6369 103.962 78.289 103.691C78.9412 103.42 79.4988 102.963 79.8921 102.376C80.2854 101.79 80.4969 101.1 80.5 100.394L80.5 11.606C80.5006 10.8965 80.2906 10.2029 79.8966 9.61279C79.5026 9.02277 78.9424 8.56293 78.2868 8.29156C77.6313 8.0202 76.91 7.94952 76.2142 8.08847C75.5184 8.22739 74.8796 8.5697 74.3785 9.07202C75.2729 8.17722 76.4232 7.58243 77.6703 7.36984C78.9174 7.15729 80.1998 7.33749 81.34 7.88553L101.518 17.5875C102.559 18.0845 103.438 18.8658 104.054 19.8412C104.671 20.8166 104.998 21.9463 105 23.1L105 88.9C105 90.0529 104.675 91.1823 104.061 92.1582C103.448 93.1341 102.571 93.9168 101.532 94.416L81.354 104.115Z" fill="#1F9CF0" fill-opacity="1.000000" fill-rule="nonzero"/>
	</g>
</svg>
